P2
# CREATOR: MOI 
2 3
255
11 39
8 39
200 0
