P2
# CREATOR: MOI 
2 3
255
3 24
8 21
200 60
