P3
# CREATOR: MOI 
2 2
255  #net en RGB
0 255 0 0 0 255
255 255 0 0 0 0
