P2
# CREATOR: MOI XV Version 3.10a  Rev: 12/29/94
4 3
255
3 11 24 39 8
21 29 39 200
60 25 0 