P3
3 2
255
127 0 0     0 0 255    127 0 255 
127 0 255    0 0 0      0 0 0 